<svg xmlns="http://www.w3.org/2000/svg" xmlns:xlink="http://www.w3.org/1999/xlink" viewBox="0,0,256,256" width="24px" height="24px" fill-rule="nonzero"><g fill="#ffffff" fill-rule="nonzero" stroke="none" stroke-width="1" stroke-linecap="butt" stroke-linejoin="miter" stroke-miterlimit="10" stroke-dasharray="" stroke-dashoffset="0" font-family="none" font-weight="none" font-size="none" text-anchor="none" style="mix-blend-mode: normal"><g transform="scale(10.66667,10.66667)"><path d="M10,0c-3.76,-0.02 -7.03,3.1 -7,7v1v3.74805c-0.52981,0.47726 -0.99023,1.25231 -0.99023,2.26367c0,1.26477 0.71828,2.17968 1.39453,2.57422c0.3615,0.21091 0.46386,0.17163 0.7207,0.22461c1.50196,3.11688 4.41524,5.74067 7.74219,6.18359l0.13281,0.01758l0.13281,-0.01758c3.32669,-0.444 6.2402,-3.06762 7.74219,-6.18359c0.25684,-0.05298 0.3592,-0.0137 0.7207,-0.22461c0.67625,-0.39454 1.39453,-1.30945 1.39453,-2.57422c0,-1.26477 -0.71828,-2.18163 -1.39453,-2.57617c-0.29863,-0.17423 -0.36309,-0.13134 -0.5957,-0.1875v-5.24805c0,-2.209 -1.791,-4 -4,-4h-1v0.00977c0,0 -1.02,-2.00977 -5,-2.00977zM12.44531,8h0.55469h2c1.63027,0 2.94983,1.30183 2.99219,2.92188v2.0918h1.15039c0.0058,0.00059 0.22545,0.02212 0.44531,0.15039c0.22275,0.12996 0.40234,0.21443 0.40234,0.84766c0,0.63323 -0.17959,0.71574 -0.40234,0.8457c-0.22275,0.12996 -0.45117,0.15234 -0.45117,0.15234l-0.61719,0.03516l-0.24414,0.56641c-1.1467,2.64474 -3.79483,4.95776 -6.27539,5.35742c-2.4803,-0.39882 -5.12865,-2.71171 -6.27539,-5.35742l-0.24414,-0.56641l-0.61719,-0.03516c0,0 -0.22842,-0.02238 -0.45117,-0.15234c-0.22275,-0.12996 -0.40234,-0.21247 -0.40234,-0.8457c0,-0.63323 0.17959,-0.7177 0.40234,-0.84766c0.21986,-0.12827 0.43952,-0.1498 0.44531,-0.15039h1.15039v-3.01367h2.99219c1.477,0 2.75231,-0.809 3.44531,-2z"></path></g></g></svg>